<svg width="44" height="34" viewBox="0 0 44 34" fill="none" xmlns="http://www.w3.org/2000/svg">
<path d="M35.956 0C32.932 0 30.4522 2.44948 30.4522 5.50378V11.2192H38.2241C38.4055 11.2192 38.6172 11.2192 38.7684 11.2495C40.5223 11.3402 41.8227 12.2474 41.8227 13.8199C41.8227 15.0598 40.9457 16.1182 39.3127 16.3299V16.3904C41.0969 16.5113 42.4577 17.5093 42.4577 19.0515C42.4577 20.7148 40.9457 21.8034 38.9498 21.8034H30.422V32.9924H38.4962C41.5203 32.9924 44 30.5429 44 27.4886V0H35.956Z" fill="url(#paint0_linear_202_289)"/>
<path d="M33.1436 20.0494H36.3189C36.3643 20.0494 36.4399 20.0419 36.5155 20.0343C36.5911 20.0268 36.6667 20.0192 36.712 20.0192C37.3168 19.8982 37.8309 19.3539 37.8309 18.5979C37.8309 17.8721 37.3168 17.3278 36.712 17.1766C36.6213 17.1464 36.4399 17.1464 36.3189 17.1464H33.1436V20.0494Z" fill="url(#paint1_linear_202_289)"/>
<path d="M36.3189 12.8825C36.9237 12.9732 37.4378 13.457 37.4378 14.1828C37.4378 14.9086 36.9237 15.3924 36.3189 15.4831C36.2887 15.5134 36.1072 15.5134 36.0165 15.5134H33.1436V12.8522H36.0165C36.0664 12.8522 36.1347 12.8614 36.1961 12.8696C36.2462 12.8763 36.2917 12.8825 36.3189 12.8825Z" fill="url(#paint2_linear_202_289)"/>
<path d="M5.53402 0C2.50996 0 0.0302401 2.44948 0.0302401 5.50378V19.0818C1.57251 19.8378 3.17526 20.3216 4.778 20.3216C6.68316 20.3216 7.71134 19.1725 7.71134 17.6V11.189H12.4289V17.5698C12.4289 20.0495 10.8866 22.0756 5.65498 22.0756C2.47972 22.0756 0 21.3801 0 21.3801V32.9622H8.07422C11.0983 32.9622 13.578 30.5127 13.578 27.4584V0H5.53402Z" fill="url(#paint3_linear_202_289)"/>
<path d="M20.745 0C17.7209 0 15.2412 2.44948 15.2412 5.50378V12.701C16.6323 11.5216 19.0515 10.7656 22.9525 10.9471C25.0391 11.0378 27.2769 11.6124 27.2769 11.6124V13.9409C26.158 13.3663 24.8275 12.8522 23.1038 12.7313C20.1402 12.5196 18.356 13.9711 18.356 16.5113C18.356 19.0818 20.1402 20.5333 23.1038 20.2914C24.8275 20.1704 26.158 19.6261 27.2769 19.0818V21.4103C27.2769 21.4103 25.0694 21.9849 22.9525 22.0756C19.0515 22.257 16.6323 21.501 15.2412 20.3216V33.0227H23.3154C26.3395 33.0227 28.8192 30.5732 28.8192 27.5189V0H20.745Z" fill="url(#paint4_linear_202_289)"/>
<defs>
<linearGradient id="paint0_linear_202_289" x1="30.4463" y1="14.1782" x2="44.036" y2="14.1782" gradientUnits="userSpaceOnUse">
<stop stop-color="#007940"/>
<stop offset="0.2285" stop-color="#00873F"/>
<stop offset="0.7433" stop-color="#40A737"/>
<stop offset="1" stop-color="#5CB531"/>
</linearGradient>
<linearGradient id="paint1_linear_202_289" x1="30.4463" y1="14.1782" x2="44.036" y2="14.1782" gradientUnits="userSpaceOnUse">
<stop stop-color="#007940"/>
<stop offset="0.2285" stop-color="#00873F"/>
<stop offset="0.7433" stop-color="#40A737"/>
<stop offset="1" stop-color="#5CB531"/>
</linearGradient>
<linearGradient id="paint2_linear_202_289" x1="30.4463" y1="14.1782" x2="44.036" y2="14.1782" gradientUnits="userSpaceOnUse">
<stop stop-color="#007940"/>
<stop offset="0.2285" stop-color="#00873F"/>
<stop offset="0.7433" stop-color="#40A737"/>
<stop offset="1" stop-color="#5CB531"/>
</linearGradient>
<linearGradient id="paint3_linear_202_289" x1="0.0233646" y1="16.4825" x2="13.8234" y2="16.4825" gradientUnits="userSpaceOnUse">
<stop stop-color="#1F286F"/>
<stop offset="0.4751" stop-color="#004E94"/>
<stop offset="0.8261" stop-color="#0066B1"/>
<stop offset="1" stop-color="#006FBC"/>
</linearGradient>
<linearGradient id="paint4_linear_202_289" x1="15.1626" y1="16.4825" x2="28.5651" y2="16.4825" gradientUnits="userSpaceOnUse">
<stop stop-color="#6C2C2F"/>
<stop offset="0.1735" stop-color="#882730"/>
<stop offset="0.5731" stop-color="#BE1833"/>
<stop offset="0.8585" stop-color="#DC0436"/>
<stop offset="1" stop-color="#E60039"/>
</linearGradient>
</defs>
</svg>
