<svg width="12" height="24" viewBox="0 0 12 24" fill="none" xmlns="http://www.w3.org/2000/svg">
<path d="M0.0790405 22.5C0.0793906 22.1023 0.237656 21.7211 0.519041 21.44L8.19104 13.768C8.42326 13.5359 8.60747 13.2602 8.73314 12.9569C8.85882 12.6535 8.92351 12.3284 8.92351 12C8.92351 11.6717 8.85882 11.3465 8.73314 11.0432C8.60747 10.7398 8.42326 10.4642 8.19104 10.232L0.52904 2.56502C0.255803 2.28211 0.104612 1.90321 0.108029 1.50992C0.111447 1.11662 0.269201 0.740401 0.547313 0.462289C0.825425 0.184177 1.20164 0.0264236 1.59494 0.0230059C1.98823 0.0195883 2.36714 0.17078 2.65004 0.444017L10.312 8.10502C11.3423 9.13728 11.9209 10.5361 11.9209 11.9945C11.9209 13.4529 11.3423 14.8518 10.312 15.884L2.64004 23.556C2.43056 23.7656 2.16368 23.9085 1.87309 23.9666C1.58249 24.0247 1.2812 23.9954 1.00723 23.8824C0.733259 23.7695 0.498891 23.5779 0.333699 23.3319C0.168506 23.0858 0.0798928 22.7964 0.0790405 22.5Z" fill="currentColor"/>
</svg>
